<svg xmlns="http://www.w3.org/2000/svg" xmlns:xlink="http://www.w3.org/1999/xlink" width="23.5" height="50" viewBox="0 0 23.5 50" fill="none"><path     fill="#E2E2E2"  d="M3.7865 0.0276642C1.73441 0.0276642 0.0689445 11.2174 0.0689445 25.0047C0.0689445 38.792 1.73441 49.9817 3.7865 49.9817C5.83859 49.9817 7.50406 38.792 7.50406 25.0047C7.50406 11.2174 5.83859 0.0276642 3.7865 0.0276642Z"></path><path     fill="#000000"  d="M3.78711 3.09766C3.78846 3.09766 3.78968 3.0996 3.79101 3.0996L18.0039 3.0996C16.8388 7.31758 16.0371 15.4928 16.0371 25.0039C16.0371 34.5157 16.8387 42.692 18.0039 46.9103L3.78711 46.9103C2.45445 46.9103 1.37304 37.096 1.37304 25.0039C1.37304 12.9118 2.45445 3.09766 3.78711 3.09766Z"></path><path     fill="#E2E2E2"  d="M19.7539 0.0273438C21.806 0.0273438 23.4727 11.2166 23.4727 25.0039C23.4727 38.7912 21.806 49.9824 19.7539 49.9824C17.7018 49.9824 16.0371 38.7912 16.0371 25.0039C16.0371 11.2166 17.7018 0.0273438 19.7539 0.0273438ZM19.7539 14.6504C18.9033 14.6504 18.2129 19.2888 18.2129 25.0039C18.2129 30.719 18.9033 35.3574 19.7539 35.3574C20.6045 35.3574 21.2949 30.719 21.2949 25.0039C21.2949 19.2888 20.6045 14.6504 19.7539 14.6504Z"></path></svg>