<?xml version="1.0" standalone="no"?><!DOCTYPE svg PUBLIC "-//W3C//DTD SVG 1.1//EN" "http://www.w3.org/Graphics/SVG/1.1/DTD/svg11.dtd"><svg t="1773155851198" class="icon" viewBox="0 0 1024 1024" version="1.1" xmlns="http://www.w3.org/2000/svg" p-id="3850" xmlns:xlink="http://www.w3.org/1999/xlink" width="200" height="200"><path d="M316.352 195.648a85.312 85.312 0 1 0-120.704 120.704 85.312 85.312 0 0 0 120.704-120.704z m-181.056-60.288a170.688 170.688 0 0 1 267.776 207.36L512 451.648l341.312-341.312 60.352 60.352-510.592 510.592a170.752 170.752 0 1 1-60.352-60.288L451.648 512 342.72 403.072a170.752 170.752 0 0 1-207.36-267.712zM640 579.648l273.664 273.728-60.352 60.288L579.648 640 640 579.648z m-323.648 128a85.312 85.312 0 1 0-120.704 120.704 85.312 85.312 0 0 0 120.704-120.704z" p-id="3851" fill="#dbdbdb"></path></svg>