<?xml version="1.0" standalone="no"?><!DOCTYPE svg PUBLIC "-//W3C//DTD SVG 1.1//EN" "http://www.w3.org/Graphics/SVG/1.1/DTD/svg11.dtd"><svg t="1772891346723" class="icon" viewBox="0 0 1024 1024" version="1.1" xmlns="http://www.w3.org/2000/svg" p-id="3133" xmlns:xlink="http://www.w3.org/1999/xlink" width="200" height="200"><path d="M409.987647 42.233114h285.226539v490.271369H409.987647z" fill="#dbdbdb" p-id="3134"></path><path d="M554.437139 1024H167.810321c-16.321976-0.612074-29.175533-13.87368-29.175533-30.195657s12.853556-29.583582 29.175533-30.195656h386.626818c16.321976 0.612074 29.175533 13.87368 29.175533 30.195656 0.204025 16.321976-12.853556 29.583582-29.175533 30.195657z m76.30524-190.559076h-152.202431c-17.3421 0-31.419805-14.077705-31.419805-31.419804v-106.296872h215.042041v106.296872c0 8.365013-3.264395 16.321976-9.181112 22.238693s-13.87368 9.181112-22.238693 9.181111z m-123.230923-60.391313H601.770871v-16.730025h-94.259415v16.730025z m0 0" p-id="3135" fill="#dbdbdb"></path><path d="M659.101813 739.58956l-54.066547-27.135286 74.264993-148.121937V60.595338H430.390118v503.736999l74.264993 148.121937-54.270572 27.135286-77.121339-154.242678c-2.244272-4.284519-3.264395-9.181112-3.264395-14.077705v-571.269177h369.692767v571.065152c0 4.896593-1.020124 9.589161-3.264395 14.077705L659.101813 739.58956z m0 0" p-id="3136" fill="#dbdbdb"></path><path d="M399.990436 500.268579h309.301455v60.391313H399.990436v-60.391313z m154.446703 523.731421c-16.730026 0-30.195657-13.465631-30.195657-30.195657v-190.559075c0.612074-16.321976 13.87368-29.175533 30.195657-29.175533s29.583582 12.853556 30.195656 29.175533v190.559075c0 16.526001-13.465631 30.195657-30.195656 30.195657z m0 0" p-id="3137" fill="#dbdbdb"></path></svg>