<?xml version="1.0" standalone="no"?><!DOCTYPE svg PUBLIC "-//W3C//DTD SVG 1.1//EN" "http://www.w3.org/Graphics/SVG/1.1/DTD/svg11.dtd"><svg class="icon" width="200px" height="200.00px" viewBox="0 0 1024 1024" version="1.1" xmlns="http://www.w3.org/2000/svg"><path fill="#ACACAC" d="M505.529226 242.654028h12.941548v538.691944H505.529226z"  /><path fill="#ACACAC" d="M505.529226 242.654028h12.941548v538.691944H505.529226z"  /><path fill="#ACACAC" d="M505.529226 242.654028h12.941548v538.691944H505.529226z"  /><path fill="#ACACAC" d="M505.529226 242.654028h12.941548v538.691944H505.529226z"  /><path fill="#ACACAC" d="M505.529226 242.654028h12.941548v538.691944H505.529226z"  /><path fill="#ACACAC" d="M505.529226 242.654028h12.941548v538.691944H505.529226z"  /><path fill="#ACACAC" d="M505.529226 242.654028h12.941548v538.691944H505.529226z"  /><path fill="#ACACAC" d="M505.529226 242.654028h12.941548v538.691944H505.529226z"  /><path fill="#ACACAC" d="M505.529226 242.654028h12.941548v538.691944H505.529226z"  /><path fill="#ACACAC" d="M505.529226 242.654028h12.941548v538.691944H505.529226z"  /><path fill="#ACACAC" d="M505.529226 242.654028h12.941548v538.691944H505.529226z"  /><path fill="#ACACAC" d="M505.529226 242.654028h12.941548v538.691944H505.529226z"  /><path fill="#ACACAC" d="M505.529226 242.654028h12.941548v538.691944H505.529226z"  /><path fill="#ACACAC" d="M505.529226 242.654028h12.941548v538.691944H505.529226z"  /><path fill="#ACACAC" d="M505.529226 242.654028h12.941548v538.691944H505.529226z"  /></svg>