<?xml version="1.0" standalone="no"?><!DOCTYPE svg PUBLIC "-//W3C//DTD SVG 1.1//EN" "http://www.w3.org/Graphics/SVG/1.1/DTD/svg11.dtd"><svg t="1770685416767" class="icon" viewBox="0 0 1024 1024" version="1.1" xmlns="http://www.w3.org/2000/svg" p-id="17459" xmlns:xlink="http://www.w3.org/1999/xlink" width="200" height="200"><path d="M267.6224 140.9024c-20.992 9.8816-33.792 25.1904-38.4 45.9776-4.8128 21.2992 5.632 41.5744 31.232 60.7232 56.4224 42.0864 80.7936 92.2112 73.216 150.4256-6.1952 47.2064-30.7712 86.3744-73.728 117.504-22.9376 17.2544-34.7648 31.488-35.3792 42.7008-1.0752 19.0464 17.7664 47.0528 56.576 83.9168h0.0512a46.5408 46.5408 0 0 1 14.5408 33.8432 47.104 47.104 0 0 1-47.2576 46.8992 47.36 47.36 0 0 1-32.768-13.056c-59.7504-56.832-88.2688-109.056-85.5552-156.8768 2.2528-40.0896 26.9312-77.7728 73.984-113.1008 21.0944-15.2576 33.024-33.28 35.7376-53.9136 2.8672-22.1184-9.216-43.264-36.2496-63.488-58.112-43.3664-80.384-95.3344-66.7648-155.9552 11.4176-50.7392 41.6256-87.552 90.624-110.4384a47.4624 47.4624 0 0 1 68.2496 41.984 46.848 46.848 0 0 1-28.16 42.8544z m267.9296 0c-20.9408 9.8816-33.792 25.1904-38.4 45.9776-4.8128 21.2992 5.632 41.5744 31.3344 60.7232 56.32 42.0864 80.7424 92.2112 73.1136 150.4256-6.144 47.2064-30.72 86.3744-73.728 117.504-22.9376 17.2544-34.7136 31.488-35.328 42.7008-1.1264 19.0464 17.7664 47.0528 56.5248 83.9168h0.1024a46.5408 46.5408 0 0 1 14.5408 33.8432 47.104 47.104 0 0 1-47.3088 46.8992 47.36 47.36 0 0 1-32.7168-13.056c-59.8016-56.832-88.32-109.056-85.6064-156.8768 2.304-40.0896 26.9824-77.7728 74.0352-113.1008 21.0944-15.2576 32.9728-33.28 35.6864-53.9136 2.9184-22.1184-9.216-43.264-36.2496-63.488-58.112-43.3664-80.384-95.3344-66.7136-155.9552 11.4176-50.7392 41.6256-87.552 90.624-110.4384a47.4624 47.4624 0 0 1 68.2496 41.984 46.848 46.848 0 0 1-28.16 42.8544z m229.5296 45.9776c4.7104-20.7872 17.5104-36.096 38.4-45.9776a46.848 46.848 0 0 0 28.16-42.8544 47.4624 47.4624 0 0 0-68.2496-41.984c-48.9984 22.8864-79.2064 59.6992-90.624 110.4384-13.6192 60.6208 8.6528 112.64 66.7648 155.9552 27.0336 20.224 39.1168 41.3696 36.2496 63.488-2.7136 20.6848-14.592 38.656-35.7376 53.9136-47.0528 35.328-71.68 73.0112-73.984 113.152-2.7136 47.7184 25.8048 99.9936 85.504 156.7744l0.1024 0.0512a47.36 47.36 0 0 0 32.7168 13.056 47.104 47.104 0 0 0 47.3088-46.8992c0-13.312-5.632-25.2928-14.592-33.792l-0.0512-0.0512c-38.8096-36.864-57.6512-64.8704-56.576-83.9168 0.6656-11.264 12.4416-25.4464 35.3792-42.7008 43.008-31.1296 67.5328-70.2976 73.728-117.504 7.5776-58.2144-16.7936-108.3392-73.1648-150.4256-25.6512-19.1488-36.096-39.424-31.3344-60.7232zM114.2272 847.872H870.912c34.816 0 63.0272 27.9552 63.0272 62.464 0 34.5088-28.2112 62.464-63.0272 62.464H114.176C79.4112 972.8 51.2 944.8448 51.2 910.336c0-34.5088 28.2112-62.464 63.0272-62.464z" fill="#dbdbdb" p-id="17460"></path></svg>