<?xml version="1.0" standalone="no"?><!DOCTYPE svg PUBLIC "-//W3C//DTD SVG 1.1//EN" "http://www.w3.org/Graphics/SVG/1.1/DTD/svg11.dtd"><svg class="icon" width="200px" height="200.00px" viewBox="0 0 1024 1024" version="1.1" xmlns="http://www.w3.org/2000/svg"><path fill="#ACACAC" d="M890.539 559.57c2.115-16.294 3.483-32.587 3.483-50 0-17.288-1.617-33.582-3.483-49.999L998 375.493c9.701-7.588 12.313-21.394 6.094-32.588L902.231 166.664c-6.095-11.193-19.9-15.298-31.094-11.193l-126.865 50.994c-26.492-20.397-55.098-37.188-86.068-50L638.802 21.394C637.186 9.08 626.612 0 613.802 0H409.95c-12.687 0-23.384 9.204-25 21.393l-19.403 135.073c-31.094 12.686-59.576 30.1-86.068 49.999L152.613 155.47c-11.815-4.602-24.999 0-31.094 11.195L19.656 342.905c-6.716 11.194-3.482 25 6.095 32.588l107.461 84.078c-2.114 16.293-3.482 33.084-3.482 50 0 16.914 1.616 33.581 3.482 49.999L25.627 643.648c-9.703 7.587-12.314 21.393-6.095 32.586l101.864 176.242c6.094 11.194 19.9 15.298 31.094 11.194l126.865-50.996c26.492 20.399 55.098 37.19 86.068 50l19.402 135.074c1.617 12.188 12.19 21.392 25 21.392h203.852c12.687 0 23.384-9.204 25-21.392l19.403-135.073c31.094-12.687 59.576-30.1 86.069-50l126.864 50.995c11.815 4.602 25 0 31.093-11.194l101.864-176.242c6.095-11.193 3.483-24.999-6.093-32.586L890.539 559.57zM511.938 688.05c-98.382 0-178.356-79.974-178.356-178.355s79.974-178.356 178.356-178.356 178.356 79.974 178.356 178.356S610.32 688.05 511.938 688.05z m0 0" /></svg>