<?xml version="1.0" standalone="no"?><!DOCTYPE svg PUBLIC "-//W3C//DTD SVG 1.1//EN" "http://www.w3.org/Graphics/SVG/1.1/DTD/svg11.dtd"><svg t="1770538526757" class="icon" viewBox="0 0 1024 1024" version="1.1" xmlns="http://www.w3.org/2000/svg" p-id="13630" xmlns:xlink="http://www.w3.org/1999/xlink" width="200" height="200"><path d="M512 17.066667C238.933333 17.066667 17.066667 238.933333 17.066667 512S238.933333 1006.933333 512 1006.933333 1006.933333 785.066667 1006.933333 512 785.066667 17.066667 512 17.066667z m286.72 672.426666c-3.413333 6.826667-10.24 10.24-13.653333 10.24H273.066667c-6.826667 0-10.24-3.413333-13.653334-10.24s-3.413333-10.24 0-17.066666l238.933334-409.6c3.413333-3.413333 6.826667-6.826667 13.653333-6.826667s10.24 3.413333 13.653333 6.826667l273.066667 409.6c3.413333 6.826667 3.413333 13.653333 0 17.066666z" fill="#cdcdcd" p-id="13631"></path></svg>