<svg xmlns="http://www.w3.org/2000/svg" xmlns:xlink="http://www.w3.org/1999/xlink" width="105" height="105" viewBox="0 0 105 105" fill="none"><path d="M70 70.0001L70 65.625L78.75 65.625L78.75 70.0001L87.4999 70.0001L87.4999 78.75L78.75 78.75L78.75 83.1251L70 83.1251L70 78.75L17.5 78.75L17.5 70.0001L70 70.0001ZM48.1249 48.125L48.1249 43.7501L56.875 43.7501L56.875 48.125L87.4999 48.125L87.4999 56.8751L56.875 56.8751L56.875 61.25L48.1249 61.25L48.1249 56.8751L17.5 56.8751L17.5 48.125L48.1249 48.125ZM26.25 26.25L26.25 21.875L34.9999 21.875L34.9999 26.25L87.4999 26.25L87.4999 35L34.9999 35L34.9999 39.375L26.25 39.375L26.25 35L17.5 35L17.5 26.25L26.25 26.25Z"   fill="#ACACAC" ></path></svg>