<?xml version="1.0" standalone="no"?><!DOCTYPE svg PUBLIC "-//W3C//DTD SVG 1.1//EN" "http://www.w3.org/Graphics/SVG/1.1/DTD/svg11.dtd"><svg class="icon" width="200px" height="200.00px" viewBox="0 0 1024 1024" version="1.1" xmlns="http://www.w3.org/2000/svg"><path d="M170.666667 227.555556h682.666666a113.777778 113.777778 0 0 1 113.777778 113.777777v341.333334a113.777778 113.777778 0 0 1-113.777778 113.777777H170.666667a113.777778 113.777778 0 0 1-113.777778-113.777777V341.333333a113.777778 113.777778 0 0 1 113.777778-113.777777z m0 42.666666A71.111111 71.111111 0 0 0 99.555556 341.333333v341.333334A71.111111 71.111111 0 0 0 170.666667 753.777778h682.666666a71.111111 71.111111 0 0 0 71.111111-71.111111V341.333333A71.111111 71.111111 0 0 0 853.333333 270.222222H170.666667z" fill="#FFFFFF" /><path d="M170.666667 270.222222A71.111111 71.111111 0 0 0 99.555556 341.333333v341.333334A71.111111 71.111111 0 0 0 170.666667 753.777778h682.666666a71.111111 71.111111 0 0 0 71.111111-71.111111V341.333333A71.111111 71.111111 0 0 0 853.333333 270.222222H170.666667z" fill="#3B8596" fill-opacity=".4" /></svg>