<?xml version="1.0" standalone="no"?><!DOCTYPE svg PUBLIC "-//W3C//DTD SVG 1.1//EN" "http://www.w3.org/Graphics/SVG/1.1/DTD/svg11.dtd"><svg class="icon" width="200px" height="200.00px" viewBox="0 0 1024 1024" version="1.1" xmlns="http://www.w3.org/2000/svg"><path fill="#bfbfbf" d="M981.333333 469.333333h-25.6C938.666667 256 768 85.333333 554.666667 64V42.666667c0-25.6-17.066667-42.666667-42.666667-42.666667s-42.666667 17.066667-42.666667 42.666667v21.333333C256 85.333333 85.333333 256 68.266667 469.333333H42.666667c-25.6 0-42.666667 17.066667-42.666667 42.666667s17.066667 42.666667 42.666667 42.666667h25.6C85.333333 768 256 938.666667 469.333333 955.733333v25.6c0 25.6 17.066667 42.666667 42.666667 42.666667s42.666667-17.066667 42.666667-42.666667v-25.6c213.333333-21.333333 384-192 401.066666-401.066666h25.6c25.6 0 42.666667-17.066667 42.666667-42.666667s-17.066667-42.666667-42.666667-42.666667z m-110.933333 0h-106.666667c-17.066667-106.666667-102.4-192-209.066666-209.066666V153.6c166.4 17.066667 298.666667 149.333333 315.733333 315.733333zM512 682.666667c-93.866667 0-170.666667-76.8-170.666667-170.666667s76.8-170.666667 170.666667-170.666667 170.666667 76.8 170.666667 170.666667-76.8 170.666667-170.666667 170.666667zM469.333333 153.6v106.666667c-106.666667 17.066667-192 102.4-209.066666 209.066666H153.6C170.666667 302.933333 302.933333 170.666667 469.333333 153.6zM153.6 554.666667h106.666667c17.066667 106.666667 102.4 192 209.066666 209.066666v106.666667C302.933333 853.333333 170.666667 721.066667 153.6 554.666667z m401.066667 315.733333v-106.666667c106.666667-17.066667 192-102.4 209.066666-209.066666h106.666667c-17.066667 166.4-149.333333 298.666667-315.733333 315.733333zM597.333333 469.333333h-42.666666v-42.666666c0-25.6-17.066667-42.666667-42.666667-42.666667s-42.666667 17.066667-42.666667 42.666667v42.666666h-42.666666c-25.6 0-42.666667 17.066667-42.666667 42.666667s17.066667 42.666667 42.666667 42.666667h42.666666v42.666666c0 25.6 17.066667 42.666667 42.666667 42.666667s42.666667-17.066667 42.666667-42.666667v-42.666666h42.666666c25.6 0 42.666667-17.066667 42.666667-42.666667s-21.333333-42.666667-42.666667-42.666667z" /></svg>