<?xml version="1.0" standalone="no"?><!DOCTYPE svg PUBLIC "-//W3C//DTD SVG 1.1//EN" "http://www.w3.org/Graphics/SVG/1.1/DTD/svg11.dtd"><svg t="1770789101872" class="icon" viewBox="0 0 1024 1024" version="1.1" xmlns="http://www.w3.org/2000/svg" p-id="25745" xmlns:xlink="http://www.w3.org/1999/xlink" width="200" height="200"><path d="M525.066667 826.666667H144V114.293333h402.346667v384.426667a21.333333 21.333333 0 0 1-42.666667 0V156.96H186.666667V784h338.4a21.333333 21.333333 0 1 1 0 42.666667z" fill="#dbdbdb" p-id="25746"></path><path d="M525.013333 283.306667H176a21.333333 21.333333 0 0 1 0-42.666667h349.013333a21.333333 21.333333 0 0 1 0 42.666667zM525.013333 405.973333H176a21.333333 21.333333 0 0 1 0-42.666666h349.013333a21.333333 21.333333 0 0 1 0 42.666666zM381.973333 519.093333H318.88a21.333333 21.333333 0 0 1 0-42.666666h63.093333a21.333333 21.333333 0 0 1 0 42.666666zM381.973333 650.133333H318.88a21.333333 21.333333 0 1 1 0-42.666666h63.093333a21.333333 21.333333 0 0 1 0 42.666666zM698.186667 620.373333a21.333333 21.333333 0 0 1-21.333334-21.333333v-314.666667a21.333333 21.333333 0 1 1 42.666667 0v314.666667a21.333333 21.333333 0 0 1-21.333333 21.333333z" fill="#dbdbdb" p-id="25747"></path><path d="M696.32 811.52a116.96 116.96 0 1 1 117.013333-116.96 117.333333 117.333333 0 0 1-117.013333 116.96z m0-191.253333a74.293333 74.293333 0 1 0 74.346667 74.293333 74.4 74.4 0 0 0-74.346667-74.293333z" fill="#dbdbdb" p-id="25748"></path><path d="M699.306667 167.146667a70.24 70.24 0 0 1 70.186666 70.186666v310.613334l18.506667 12.693333a162.293333 162.293333 0 1 1-178.613333-3.093333l19.733333-12.586667V237.333333a70.293333 70.293333 0 0 1 70.186667-70.186666m0-42.666667A112.853333 112.853333 0 0 0 586.666667 237.333333v284.213334a204.906667 204.906667 0 1 0 225.706666 3.893333v-288a112.853333 112.853333 0 0 0-112.853333-112.853333z" fill="#dbdbdb" p-id="25749"></path></svg>