<?xml version="1.0" standalone="no"?><!DOCTYPE svg PUBLIC "-//W3C//DTD SVG 1.1//EN" "http://www.w3.org/Graphics/SVG/1.1/DTD/svg11.dtd"><svg class="icon" width="200px" height="200.00px" viewBox="0 0 1024 1024" version="1.1" xmlns="http://www.w3.org/2000/svg"><path fill="#ACACAC" d="M666.781538 123.273846S238.670769 107.126154 137.058462 152.812308C23.236923 204.406154 7.876923 444.652308 7.876923 528.541538c0 0 9.452308 300.898462 128.393846 348.553847 99.643077 39.778462 530.510769 20.48 530.510769 20.48s-166.990769-28.750769-186.28923-381.636923c0 0-25.993846-305.230769 186.28923-392.664616z m105.156924 4.332308c134.301538 0 243.003077 170.929231 243.003076 381.636923 0 210.707692-108.701538 381.636923-243.003076 381.636923s-243.003077-170.929231-243.003077-381.636923c0-210.707692 109.095385-381.636923 243.003077-381.636923z m5.513846 596.676923c81.92 0 148.48-102.006154 148.48-226.855385 0-125.243077-66.56-226.855385-148.48-226.855384-81.92 0-148.48 101.612308-148.48 226.855384s66.56 226.855385 148.48 226.855385z m0 0" /></svg>