<svg xmlns="http://www.w3.org/2000/svg" xmlns:xlink="http://www.w3.org/1999/xlink" width="80" height="80" viewBox="0 0 80 80" fill="none"><path d="M52.0923 9.63078C52.0923 9.63078 18.6462 8.36922 10.7077 11.9384C1.81539 15.9692 0.615387 34.7385 0.615387 41.2924C0.615387 41.2924 1.35385 64.8 10.6462 68.5231C18.4308 71.6308 52.0923 70.1231 52.0923 70.1231C52.0923 70.1231 39.0462 67.877 37.5384 40.3077C37.5384 40.3077 35.5077 16.4616 52.0923 9.63078L52.0923 9.63078ZM60.3077 9.96922C70.8 9.96922 79.2919 23.3231 79.2919 39.7846C79.2919 56.2462 70.8 69.6 60.3077 69.6C49.8154 69.6 41.323 56.2462 41.323 39.7846C41.323 23.3231 49.8462 9.96922 60.3077 9.96922ZM60.7384 56.5846C67.1384 56.5846 72.3384 48.6154 72.3384 38.8616C72.3384 29.077 67.1384 21.1385 60.7384 21.1385C54.3384 21.1385 49.1384 29.077 49.1384 38.8616C49.1384 48.6462 54.3384 56.5846 60.7384 56.5846Z"   fill="#ACACAC" ></path></svg>