<?xml version="1.0" standalone="no"?><!DOCTYPE svg PUBLIC "-//W3C//DTD SVG 1.1//EN" "http://www.w3.org/Graphics/SVG/1.1/DTD/svg11.dtd"><svg t="1770530183235" class="icon" viewBox="0 0 1102 1024" version="1.1" xmlns="http://www.w3.org/2000/svg" p-id="9691" xmlns:xlink="http://www.w3.org/1999/xlink" width="215.234375" height="200"><path d="M935.542154 418.107077h80.738461c87.197538 0 101.612308-42.771692 32.452923-95.547077L687.419077 47.104c-68.844308-52.460308-182.114462-53.720615-252.061539-2.205538L54.744615 324.765538c-70.498462 51.908923-56.162462 93.341538 31.035077 93.341539h86.409846a157.774769 157.774769 0 0 0-23.158153 82.471385v297.747692c0 87.748923 70.734769 158.168615 158.011077 158.168615h493.48923a157.853538 157.853538 0 0 0 158.011077-158.168615v-297.747692c0-30.326154-8.428308-58.525538-23.079384-82.471385zM400.384 607.547077c0-84.755692 68.135385-153.521231 153.521231-153.521231 84.755692 0 153.521231 68.135385 153.521231 153.6 0 84.755692-68.135385 153.442462-153.6 153.442462a153.127385 153.127385 0 0 1-153.442462-153.521231z" fill="#1296db" p-id="9692"></path></svg>