<?xml version="1.0" standalone="no"?><!DOCTYPE svg PUBLIC "-//W3C//DTD SVG 1.1//EN" "http://www.w3.org/Graphics/SVG/1.1/DTD/svg11.dtd"><svg class="icon" width="200px" height="200.00px" viewBox="0 0 1024 1024" version="1.1" xmlns="http://www.w3.org/2000/svg"><path fill="#ACACAC" d="M488.155429 458.898286L15.36 256.073143a27.501714 27.501714 0 0 1 0-49.225143L489.472 5.339429a49.883429 49.883429 0 0 1 44.763429 0l473.453714 191.926857a27.501714 27.501714 0 0 1 0 49.225143L535.405714 458.898286a55.661714 55.661714 0 0 1-47.323428 0z m494.884571 274.651428l5.412571 0.512c16.603429 0 30.134857 13.458286 30.134858 29.988572a30.72 30.72 0 0 1-19.894858 32.694857l-453.558857 199.606857a64 64 0 0 1-31.378285 7.021714c-11.702857 0-23.332571-2.633143-33.938286-7.68L26.843429 803.84a30.061714 30.061714 0 0 1 10.24-58.221714H46.811429l456.777142 191.926857a21.138286 21.138286 0 0 0 17.261715 0l456.850285-203.410286c3.584-0.658286 7.314286-0.658286 10.825143 0z m10.532571-272.091428a30.061714 30.061714 0 0 1 30.134858 30.72 30.72 30.72 0 0 1-15.36 30.061714L542.573714 730.185143a78.043429 78.043429 0 0 1-65.901714-0.658286L18.578286 522.24a30.061714 30.061714 0 0 1 14.628571-56.32 31.963429 31.963429 0 0 1 8.411429 0H45.348571l454.948572 206.043429c5.266286 2.194286 11.264 2.194286 16.603428 0l462.555429-206.628572a27.501714 27.501714 0 0 1 14.043429-3.876571z"  /></svg>