<svg xmlns="http://www.w3.org/2000/svg" xmlns:xlink="http://www.w3.org/1999/xlink" width="80" height="80" viewBox="0 0 80 80" fill="none"><path d="M38.1371 35.8514L1.2 20.0057C1.1778 19.9946 1.1558 19.9832 1.13399 19.9714C1.11219 19.9595 1.09059 19.9473 1.06921 19.9348C1.04783 19.9221 1.02667 19.9093 1.00574 19.896C0.984805 19.8826 0.96411 19.8689 0.943649 19.855C0.923188 19.8409 0.902977 19.8265 0.883016 19.8118C0.863055 19.7971 0.843352 19.782 0.823907 19.7666C0.804469 19.7511 0.785302 19.7354 0.766406 19.7194C0.747511 19.7033 0.728901 19.6869 0.710574 19.6702C0.692247 19.6535 0.674215 19.6364 0.656478 19.6191C0.638741 19.6018 0.621309 19.5841 0.604183 19.5661C0.587058 19.5482 0.570248 19.53 0.553755 19.5114C0.53726 19.4928 0.521092 19.4741 0.50525 19.455C0.489407 19.4359 0.4739 19.4165 0.458728 19.3969C0.443556 19.3772 0.428728 19.3574 0.414245 19.3373C0.399762 19.3171 0.385632 19.2968 0.371855 19.2761C0.358078 19.2555 0.344662 19.2346 0.331608 19.2135C0.318554 19.1925 0.305868 19.1711 0.293552 19.1496C0.281236 19.128 0.269297 19.1063 0.257734 19.0843C0.246171 19.0624 0.234991 19.0403 0.224195 19.0179C0.213399 18.9956 0.202993 18.9731 0.192977 18.9504C0.182961 18.9277 0.173341 18.9048 0.164116 18.8818C0.154892 18.8587 0.146069 18.8355 0.137648 18.8122C0.129226 18.7889 0.121212 18.7654 0.113604 18.7418C0.105995 18.7182 0.0987983 18.6945 0.0920124 18.6707C0.0852261 18.6468 0.0788554 18.6228 0.0728997 18.5987C0.066944 18.5746 0.061407 18.5504 0.0562888 18.5262C0.0511706 18.5019 0.0464743 18.4775 0.0421997 18.4531C0.037925 18.4286 0.0340749 18.4041 0.030649 18.3796C0.0272232 18.355 0.0242238 18.3304 0.0216508 18.3057C0.0190779 18.281 0.0169329 18.2563 0.0152158 18.2316C0.0134988 18.2068 0.0122108 18.1821 0.0113518 18.1573C0.0104927 18.1325 0.0100632 18.1077 0.0100632 18.0829C0.0100632 18.0581 0.0104927 18.0332 0.0113517 18.0085C0.0122107 17.9836 0.0134988 17.9589 0.0152158 17.9342C0.0169329 17.9094 0.0190779 17.8847 0.0216508 17.86C0.0242238 17.8353 0.0272232 17.8107 0.030649 17.7862C0.0340749 17.7616 0.037925 17.7371 0.0421996 17.7127C0.0464742 17.6882 0.0511706 17.6639 0.0562888 17.6396C0.061407 17.6153 0.0669439 17.5911 0.0728996 17.5671C0.0788553 17.543 0.0852261 17.519 0.0920124 17.4952C0.0987983 17.4713 0.105995 17.4475 0.113604 17.4239C0.121212 17.4003 0.129226 17.3768 0.137648 17.3535C0.146069 17.3302 0.154891 17.307 0.164116 17.284C0.173341 17.2609 0.182961 17.2381 0.192977 17.2154C0.202993 17.1927 0.213399 17.1702 0.224195 17.1478C0.234991 17.1255 0.24617 17.1033 0.257733 17.0814C0.269296 17.0594 0.281236 17.0377 0.293552 17.0162C0.305868 16.9946 0.318553 16.9733 0.331608 16.9522C0.344662 16.9311 0.358078 16.9103 0.371855 16.8896C0.385632 16.869 0.399762 16.8486 0.414245 16.8285C0.428728 16.8084 0.443556 16.7885 0.458728 16.7689C0.4739 16.7492 0.489407 16.7299 0.505249 16.7108C0.521091 16.6917 0.53726 16.6728 0.553754 16.6543C0.570248 16.6358 0.587058 16.6176 0.604183 16.5996C0.621309 16.5817 0.638741 16.564 0.656478 16.5467C0.674215 16.5293 0.692247 16.5123 0.710573 16.4956C0.7289 16.4789 0.747511 16.4625 0.766406 16.4464C0.785302 16.4303 0.804469 16.4146 0.823907 16.3992C0.843352 16.3837 0.863055 16.3686 0.883016 16.3539C0.902977 16.3393 0.923188 16.3249 0.943649 16.3108C0.96411 16.2968 0.984805 16.2831 1.00574 16.2698C1.02667 16.2565 1.04783 16.2435 1.06921 16.231C1.09059 16.2184 1.11219 16.2062 1.13399 16.1944C1.1558 16.1825 1.1778 16.1711 1.2 16.16L38.24 0.417143C38.2737 0.400191 38.3078 0.383735 38.342 0.367773C38.3762 0.351811 38.4107 0.33635 38.4454 0.32139C38.4801 0.30643 38.515 0.291978 38.5501 0.278033C38.5852 0.264089 38.6205 0.250657 38.656 0.23774C38.6915 0.224822 38.7272 0.212422 38.763 0.200543C38.799 0.188662 38.835 0.177306 38.8712 0.166474C38.9074 0.155641 38.9437 0.145338 38.9802 0.135563C39.0167 0.125787 39.0533 0.116544 39.0901 0.107834C39.1269 0.0991239 39.1637 0.0909505 39.2007 0.083313C39.2377 0.075675 39.2748 0.0685769 39.312 0.0620184C39.3492 0.0554599 39.3865 0.0494437 39.4239 0.0439697C39.4613 0.0384958 39.4987 0.0335665 39.5362 0.0291818C39.5738 0.0247971 39.6114 0.0209589 39.649 0.0176671C39.6866 0.0143754 39.7244 0.0116314 39.762 0.00943532C39.7998 0.00723928 39.8375 0.00559201 39.8752 0.00449351C39.913 0.00339501 39.9508 0.00284576 39.9886 0.00284576C40.0264 0.00284576 40.0641 0.00339501 40.1019 0.00449351C40.1397 0.00559201 40.1774 0.00723928 40.2151 0.00943532C40.2529 0.0116314 40.2905 0.0143754 40.3281 0.0176671C40.3658 0.0209589 40.4033 0.0247971 40.4408 0.0291818C40.4784 0.0335665 40.5158 0.0384958 40.5532 0.0439697C40.5906 0.0494437 40.6279 0.0554599 40.6651 0.0620184C40.7023 0.0685769 40.7394 0.075675 40.7764 0.083313C40.8134 0.0909505 40.8503 0.0991239 40.887 0.107834C40.9238 0.116544 40.9605 0.125787 40.9969 0.135563C41.0335 0.145338 41.0698 0.155641 41.1059 0.166474C41.1422 0.177306 41.1782 0.188662 41.214 0.200543C41.25 0.212422 41.2856 0.224822 41.3211 0.23774C41.3566 0.250657 41.3919 0.264089 41.427 0.278033C41.4622 0.291978 41.497 0.30643 41.5317 0.32139C41.5664 0.33635 41.6009 0.351811 41.6351 0.367773C41.6694 0.383735 41.7033 0.400191 41.7371 0.417143L78.7257 15.4114C78.7483 15.4225 78.7702 15.4339 78.7913 15.4458C78.8132 15.4576 78.8351 15.4698 78.8562 15.4825C78.8773 15.495 78.8991 15.5079 78.9202 15.5213C78.9413 15.5346 78.9616 15.5482 78.9819 15.5623C79.0023 15.5763 79.0226 15.5907 79.0429 15.6054C79.0624 15.6201 79.0819 15.6352 79.1015 15.6506C79.121 15.666 79.1405 15.6818 79.1593 15.6978C79.178 15.7139 79.1968 15.7303 79.2148 15.7471C79.2335 15.7638 79.2515 15.7808 79.2694 15.7982C79.2874 15.8155 79.3046 15.8331 79.3218 15.851C79.3382 15.869 79.3554 15.8872 79.3718 15.9058C79.3882 15.9243 79.4046 15.9431 79.4202 15.9622C79.4366 15.9813 79.4522 16.0006 79.4671 16.0203C79.4819 16.0399 79.4968 16.0598 79.5116 16.08C79.5257 16.1001 79.5397 16.1205 79.5538 16.1411C79.5671 16.1618 79.5804 16.1826 79.5937 16.2037C79.6069 16.2248 79.6202 16.246 79.6319 16.2676C79.6444 16.2892 79.6562 16.3109 79.6679 16.3328C79.6796 16.3548 79.6905 16.3769 79.7015 16.3993C79.7124 16.4216 79.7226 16.4441 79.7327 16.4668C79.7429 16.4895 79.7523 16.5124 79.7616 16.5354C79.771 16.5584 79.7796 16.5816 79.7882 16.605C79.7968 16.6282 79.8046 16.6518 79.8116 16.6753C79.8194 16.6989 79.8265 16.7227 79.8335 16.7466C79.8405 16.7704 79.8468 16.7944 79.853 16.8185C79.8585 16.8425 79.864 16.8668 79.8694 16.891C79.8749 16.9153 79.8796 16.9396 79.8835 16.9641C79.8874 16.9885 79.8913 17.013 79.8952 17.0376C79.8983 17.0621 79.9015 17.0868 79.9038 17.1114C79.9062 17.1361 79.9085 17.1608 79.9101 17.1856C79.9124 17.2103 79.9132 17.2351 79.914 17.26C79.9147 17.2847 79.9155 17.3095 79.9155 17.3343C79.9155 17.3591 79.9147 17.3839 79.914 17.4087C79.9132 17.4335 79.9124 17.4582 79.9101 17.483C79.9085 17.5078 79.9062 17.5325 79.9038 17.5571C79.9015 17.5818 79.8983 17.6064 79.8952 17.631C79.8913 17.6556 79.8874 17.68 79.8835 17.7046C79.8796 17.7289 79.8749 17.7533 79.8694 17.7776C79.864 17.8018 79.8585 17.826 79.853 17.8501C79.8468 17.8742 79.8405 17.8982 79.8335 17.9221C79.8265 17.9459 79.8194 17.9696 79.8116 17.9932C79.8046 18.0168 79.7968 18.0403 79.7882 18.0637C79.7796 18.087 79.771 18.1102 79.7616 18.1332C79.7523 18.1562 79.7429 18.1791 79.7327 18.2018C79.7226 18.2245 79.7124 18.247 79.7015 18.2693C79.6905 18.2917 79.6796 18.3138 79.6679 18.3358C79.6562 18.3577 79.6444 18.3794 79.6319 18.401C79.6202 18.4225 79.6069 18.4439 79.5937 18.465C79.5804 18.486 79.5671 18.5069 79.5538 18.5275C79.5397 18.5482 79.5257 18.5685 79.5116 18.5887C79.4968 18.6089 79.4819 18.6287 79.4671 18.6483C79.4522 18.6679 79.4366 18.6873 79.4202 18.7064C79.4046 18.7255 79.3882 18.7443 79.3718 18.7628C79.3554 18.7814 79.3382 18.7996 79.3218 18.8176C79.3046 18.8355 79.2874 18.8532 79.2694 18.8705C79.2515 18.8878 79.2335 18.9049 79.2148 18.9216C79.1968 18.9383 79.178 18.9547 79.1593 18.9708C79.1405 18.9868 79.121 19.0025 79.1015 19.018C79.0819 19.0334 79.0624 19.0485 79.0429 19.0632C79.0226 19.0779 79.0023 19.0923 78.9819 19.1064C78.9616 19.1203 78.9413 19.134 78.9202 19.1474C78.8991 19.1607 78.8773 19.1736 78.8562 19.1862C78.8351 19.1988 78.8132 19.211 78.7913 19.2228C78.7702 19.2346 78.7483 19.246 78.7257 19.2571L41.8286 35.8514C41.7926 35.8683 41.7563 35.8848 41.7198 35.9007C41.6834 35.9166 41.6467 35.932 41.6098 35.9469C41.573 35.9618 41.5359 35.9762 41.4986 35.9901C41.4614 36.004 41.4239 36.0174 41.3862 36.0303C41.3486 36.0431 41.3108 36.0554 41.2728 36.0673C41.2348 36.0791 41.1967 36.0904 41.1584 36.1012C41.1201 36.112 41.0817 36.1222 41.0431 36.132C41.0045 36.1417 40.9658 36.1509 40.927 36.1596C40.8882 36.1682 40.8493 36.1763 40.8102 36.1839C40.7712 36.1915 40.732 36.1985 40.6927 36.2051C40.6535 36.2116 40.6142 36.2176 40.5747 36.2231C40.5354 36.2285 40.4959 36.2334 40.4564 36.2378C40.4169 36.2421 40.3773 36.2459 40.3376 36.2492C40.298 36.2525 40.2583 36.2552 40.2185 36.2574C40.1788 36.2596 40.1391 36.2612 40.0993 36.2623C40.0596 36.2634 40.0198 36.2639 39.98 36.2639C39.9402 36.2639 39.9005 36.2634 39.8607 36.2623C39.8209 36.2612 39.7812 36.2596 39.7415 36.2574C39.7018 36.2552 39.6621 36.2525 39.6224 36.2492C39.5828 36.2459 39.5432 36.2421 39.5036 36.2378C39.464 36.2334 39.4246 36.2285 39.3852 36.2231C39.3458 36.2176 39.3065 36.2116 39.2673 36.2051C39.228 36.1985 39.1888 36.1915 39.1497 36.1839C39.1108 36.1763 39.0719 36.1682 39.033 36.1596C38.9942 36.1509 38.9555 36.1417 38.9169 36.132C38.8783 36.1222 38.8398 36.112 38.8015 36.1012C38.7633 36.0904 38.7251 36.0791 38.6872 36.0673C38.6492 36.0554 38.6114 36.0431 38.5737 36.0303C38.5361 36.0174 38.4987 36.004 38.4613 35.9901C38.4241 35.9762 38.387 35.9618 38.3501 35.9469C38.3133 35.932 38.2766 35.9166 38.2401 35.9007C38.2037 35.8848 38.1675 35.8683 38.1314 35.8514L38.1371 35.8514ZM76.8 57.3086L77.2229 57.3486C78.5202 57.3486 79.5772 58.4 79.5772 59.6914C79.5812 59.7248 79.5851 59.7582 79.5874 59.7918C79.5905 59.8253 79.5929 59.8589 79.5937 59.8925C79.5952 59.926 79.596 59.9596 79.596 59.9933C79.596 60.0269 79.5952 60.0605 79.5937 60.0941C79.5929 60.1277 79.5905 60.1612 79.5874 60.1948C79.5851 60.2282 79.5812 60.2617 79.5772 60.2951C79.5726 60.3284 79.5679 60.3617 79.5624 60.3949C79.5569 60.428 79.5499 60.461 79.5429 60.4939C79.5358 60.5268 79.5288 60.5595 79.5202 60.5921C79.5116 60.6246 79.503 60.657 79.4929 60.6892C79.4827 60.7214 79.4726 60.7533 79.4616 60.7851C79.4499 60.8168 79.4382 60.8483 79.4265 60.8796C79.414 60.9108 79.4007 60.9418 79.3866 60.9725C79.3733 61.0032 79.3585 61.0336 79.3437 61.0637C79.3288 61.0938 79.3132 61.1236 79.2968 61.153C79.2804 61.1824 79.264 61.2114 79.246 61.2402C79.2288 61.2689 79.2108 61.2973 79.1921 61.3253C79.1733 61.3532 79.1538 61.3807 79.1343 61.4079C79.1148 61.4351 79.0944 61.4618 79.0733 61.4882C79.0523 61.5144 79.0304 61.5403 79.0085 61.5657C78.9866 61.591 78.964 61.616 78.9413 61.6404C78.9179 61.6649 78.8944 61.6889 78.8702 61.7123C78.846 61.7357 78.8218 61.7587 78.7968 61.7811C78.771 61.8035 78.746 61.8254 78.7202 61.8468C78.6944 61.8682 78.6679 61.8889 78.6405 61.9092C78.614 61.9294 78.5866 61.9491 78.5585 61.9682C78.5312 61.9873 78.503 62.0057 78.4749 62.0237C78.446 62.0416 78.4171 62.0589 78.3882 62.0757C78.3593 62.0924 78.3296 62.1084 78.2999 62.1239C78.2694 62.1393 78.2398 62.1542 78.2093 62.1684C78.1788 62.1825 78.1476 62.196 78.1168 62.209C78.0858 62.2219 78.0544 62.2342 78.0229 62.2457L42.5886 77.84C42.4944 77.8883 42.3988 77.9336 42.3018 77.9759C42.2048 78.0181 42.1065 78.0572 42.0069 78.0932C41.9074 78.1286 41.8069 78.1614 41.7052 78.1911C41.6037 78.2208 41.5012 78.2474 41.3979 78.2708C41.2946 78.2943 41.1907 78.3138 41.0862 78.3302C40.9816 78.3466 40.8766 78.3599 40.7712 78.3692C40.6659 78.3794 40.5603 78.3857 40.4545 78.3888C40.3487 78.3919 40.2429 78.3919 40.1371 78.388C39.2229 78.388 38.3143 78.1825 37.4857 77.7886L2.09714 62.8C2.06534 62.7882 2.03381 62.7756 2.00256 62.7624C1.9713 62.7491 1.94034 62.7351 1.90969 62.7206C1.87904 62.706 1.84872 62.6907 1.81873 62.6749C1.78874 62.6589 1.75909 62.6424 1.72982 62.6252C1.70055 62.608 1.67166 62.5902 1.64316 62.5718C1.61466 62.5533 1.58657 62.5343 1.55889 62.5146C1.53121 62.495 1.50398 62.4746 1.47718 62.4539C1.45038 62.433 1.42405 62.4116 1.39818 62.3896C1.37231 62.3676 1.34693 62.3451 1.32204 62.3221C1.29714 62.2989 1.27277 62.2753 1.2489 62.2512C1.22503 62.2271 1.2017 62.2025 1.17889 62.1773C1.15609 62.1521 1.13385 62.1264 1.11216 62.1003C1.09047 62.0743 1.06936 62.0477 1.04883 62.0207C1.02829 61.9936 1.00835 61.9661 0.989001 61.9382C0.969657 61.9103 0.95093 61.8821 0.932813 61.8534C0.914696 61.8246 0.897204 61.7955 0.880352 61.7661C0.863493 61.7366 0.847282 61.7068 0.831719 61.6767C0.816157 61.6464 0.801259 61.616 0.787016 61.5852C0.772773 61.5543 0.759206 61.5232 0.746314 61.4918C0.733422 61.4604 0.721217 61.4287 0.709698 61.3968C0.69818 61.3649 0.687358 61.3327 0.677234 61.3003C0.667111 61.2678 0.657694 61.2353 0.648984 61.2025C0.640274 61.1696 0.63228 61.1367 0.625001 61.1035C0.617721 61.0703 0.611163 61.0371 0.605328 61.0036C0.599492 60.9702 0.594384 60.9366 0.590004 60.903C0.585623 60.8693 0.581975 60.8355 0.579058 60.8018C0.57614 60.7679 0.573957 60.734 0.572508 60.7001C0.57106 60.6662 0.570347 60.6322 0.570369 60.5983C0.570392 60.5644 0.571151 60.5305 0.572645 60.4966C0.574139 60.4626 0.576368 60.4287 0.57933 60.395C0.582293 60.3611 0.585987 60.3274 0.590413 60.2938C0.594839 60.26 0.599992 60.2265 0.605873 60.1931C0.611752 60.1596 0.618355 60.1264 0.62568 60.0932C0.633003 60.0601 0.641042 60.0271 0.649796 59.9943C0.65855 59.9615 0.668011 59.9289 0.678178 59.8965C0.688345 59.8641 0.699209 59.8319 0.710771 59.8C0.722333 59.7682 0.73458 59.7365 0.747515 59.7051C0.760449 59.6737 0.774056 59.6426 0.788337 59.6118C0.802626 59.581 0.817571 59.5506 0.833173 59.5204C0.848774 59.4903 0.865016 59.4604 0.881915 59.431C0.898813 59.4015 0.916337 59.3725 0.934493 59.3439C0.952649 59.3151 0.971423 59.2868 0.990805 59.259C1.01019 59.2311 1.03016 59.2037 1.05073 59.1767C1.07131 59.1496 1.09245 59.1232 1.11418 59.0971C1.13591 59.071 1.15818 59.0453 1.18102 59.0203C1.20385 58.9951 1.22722 58.9705 1.25112 58.9464C1.27502 58.9223 1.29943 58.8987 1.32435 58.8757C1.34927 58.8526 1.37469 58.8301 1.40059 58.8082C1.42649 58.7862 1.45285 58.7648 1.47967 58.744C1.5065 58.7232 1.53377 58.703 1.56147 58.6834C1.58916 58.6638 1.61728 58.6448 1.64581 58.6264C1.67434 58.6079 1.70325 58.5902 1.73255 58.5731C1.76184 58.5559 1.7915 58.5393 1.82152 58.5235C1.85152 58.5076 1.88187 58.4925 1.91254 58.4779C1.94322 58.4634 1.97419 58.4495 2.00546 58.4363C2.03674 58.4231 2.06828 58.4106 2.1001 58.3987C2.13192 58.3868 2.16398 58.3757 2.19627 58.3653C2.22858 58.3549 2.26109 58.3451 2.29381 58.336C2.32654 58.327 2.35944 58.3187 2.39252 58.3111C2.42561 58.3035 2.45884 58.2966 2.49222 58.2904C2.5256 58.2843 2.5591 58.2788 2.59272 58.2741C2.62634 58.2694 2.66005 58.2654 2.69384 58.2621C2.72763 58.2589 2.76148 58.2564 2.79538 58.2546C2.82927 58.2528 2.8632 58.2518 2.89714 58.2514L3.65714 58.2514L39.3429 73.2457C39.3693 73.2575 39.396 73.2686 39.423 73.2791C39.4501 73.2895 39.4772 73.2992 39.5047 73.3082C39.5323 73.3171 39.5601 73.3254 39.588 73.3329C39.616 73.3404 39.6441 73.3472 39.6724 73.3533C39.7007 73.3593 39.7291 73.3646 39.7577 73.3692C39.7863 73.3737 39.8151 73.3774 39.8438 73.3806C39.8726 73.3835 39.9015 73.3858 39.9304 73.3874C39.9593 73.3889 39.9882 73.3896 40.0171 73.3896C40.0461 73.3896 40.075 73.3889 40.1039 73.3874C40.1328 73.3858 40.1617 73.3835 40.1905 73.3806C40.2193 73.3774 40.248 73.3737 40.2765 73.3692C40.3051 73.3646 40.3336 73.3593 40.3619 73.3533C40.3902 73.3472 40.4183 73.3404 40.4462 73.3329C40.4742 73.3254 40.5019 73.3171 40.5294 73.3082C40.557 73.2992 40.5843 73.2895 40.6112 73.2791C40.6383 73.2686 40.665 73.2575 40.6914 73.2457L76.3829 57.3543C76.6629 57.3029 76.9543 57.3029 77.2286 57.3543L76.8 57.3086ZM77.6229 36.0514C77.6619 36.0513 77.7009 36.0522 77.7399 36.0541C77.779 36.0559 77.8179 36.0587 77.8567 36.0625C77.8956 36.0663 77.9343 36.071 77.9729 36.0768C78.0115 36.0825 78.0499 36.0891 78.0882 36.0968C78.1263 36.1044 78.164 36.113 78.2022 36.1225C78.2405 36.1321 78.278 36.1425 78.3148 36.1539C78.3522 36.1653 78.3897 36.1776 78.4265 36.1909C78.4632 36.2041 78.4991 36.2182 78.5351 36.2333C78.571 36.2484 78.6069 36.2643 78.6421 36.2812C78.6773 36.298 78.7124 36.3157 78.7468 36.3343C78.7812 36.3529 78.8148 36.3723 78.8483 36.3926C78.8819 36.4128 78.9147 36.4339 78.9468 36.4558C78.9788 36.4777 79.0108 36.5004 79.0421 36.5239C79.0733 36.5474 79.1038 36.5716 79.1335 36.5967C79.164 36.6217 79.1929 36.6474 79.2218 36.6739C79.2507 36.7003 79.278 36.7275 79.3054 36.7553C79.3327 36.7832 79.3601 36.8117 79.3858 36.841C79.4116 36.8702 79.4366 36.9 79.4608 36.9304C79.4851 36.9609 79.5093 36.9919 79.5319 37.0235C79.5546 37.0551 79.5772 37.0873 79.5983 37.1201C79.6194 37.1528 79.6397 37.186 79.6593 37.2198C79.6788 37.2535 79.6976 37.2878 79.7155 37.3225C79.7335 37.3571 79.7507 37.3922 79.7671 37.4278C79.7835 37.4633 79.7983 37.4992 79.8124 37.5356C79.8272 37.5718 79.8405 37.6085 79.853 37.6454C79.8655 37.6824 79.8773 37.7196 79.8882 37.7572C79.8983 37.7947 79.9085 37.8325 79.9171 37.8706C79.9257 37.9086 79.9335 37.9468 79.9405 37.9853C79.9476 38.0237 79.953 38.0623 79.9585 38.101C79.964 38.1397 79.9679 38.1785 79.9702 38.2175C79.9733 38.2564 79.9757 38.2953 79.9765 38.3344C79.9772 38.3734 79.978 38.4124 79.9772 38.4514C79.9804 38.4803 79.9827 38.5093 79.9851 38.5383C79.9874 38.5673 79.989 38.5964 79.9898 38.6255C79.9905 38.6546 79.9913 38.6836 79.9913 38.7127C79.9913 38.7417 79.9905 38.7709 79.9898 38.8C79.989 38.829 79.9874 38.858 79.9851 38.8871C79.9827 38.916 79.9804 38.945 79.9772 38.9739C79.9741 39.0028 79.9702 39.0317 79.9663 39.0605C79.9624 39.0892 79.9577 39.118 79.9522 39.1466C79.9468 39.1752 79.9413 39.2037 79.9343 39.2321C79.928 39.2605 79.921 39.2888 79.914 39.317C79.9069 39.3451 79.8991 39.3731 79.8905 39.401C79.8819 39.4288 79.8733 39.4565 79.864 39.4841C79.8546 39.5116 79.8452 39.539 79.8351 39.5662C79.8249 39.5934 79.814 39.6203 79.8023 39.6472C79.7905 39.6739 79.7788 39.7005 79.7671 39.7269C79.7546 39.7533 79.7421 39.7794 79.7288 39.8053C79.7155 39.8312 79.7015 39.8568 79.6874 39.8823C79.6733 39.9077 79.6585 39.9328 79.6437 39.9578C79.6288 39.9826 79.6132 40.0071 79.5968 40.0315C79.5812 40.0558 79.5648 40.0798 79.5476 40.1035C79.5312 40.1272 79.514 40.1506 79.496 40.1737C79.478 40.1968 79.4601 40.2196 79.4413 40.242C79.4233 40.2644 79.4046 40.2865 79.3851 40.3082C79.3655 40.33 79.346 40.3513 79.3257 40.3724C79.3054 40.3934 79.2851 40.414 79.264 40.4343C79.2429 40.4546 79.2218 40.4745 79.2007 40.494C79.1788 40.5135 79.1569 40.5325 79.1351 40.5513C79.1124 40.57 79.0898 40.5882 79.0671 40.6062C79.0444 40.624 79.021 40.6415 78.9968 40.6585C78.9733 40.6756 78.9499 40.6921 78.9257 40.7084C78.9015 40.7245 78.8765 40.7403 78.8522 40.7556C78.8272 40.7708 78.8023 40.7857 78.7773 40.8L42.3886 57.0457C42.3382 57.0686 42.2875 57.0907 42.2364 57.1123C42.1854 57.1338 42.134 57.1546 42.0824 57.1747C42.0308 57.1948 41.979 57.2142 41.9269 57.2328C41.8748 57.2515 41.8224 57.2695 41.7697 57.2868C41.7171 57.304 41.6643 57.3206 41.6112 57.3364C41.5582 57.3521 41.5049 57.3673 41.4514 57.3817C41.398 57.396 41.3443 57.4096 41.2904 57.4226C41.2365 57.4354 41.1826 57.4476 41.1283 57.4591C41.0742 57.4705 41.0199 57.4811 40.9654 57.4911C40.9109 57.5011 40.8563 57.5103 40.8015 57.5188C40.7469 57.5272 40.6921 57.535 40.6371 57.5419C40.5822 57.5489 40.5272 57.5551 40.472 57.5606C40.4169 57.566 40.3618 57.5707 40.3065 57.5748C40.2513 57.5787 40.196 57.5819 40.1407 57.5844C40.0854 57.5869 40.0301 57.5886 39.9747 57.5896C39.9194 57.5905 39.864 57.5907 39.8086 57.5902C39.7533 57.5896 39.6979 57.5882 39.6425 57.5862C39.5872 57.5842 39.5319 57.5814 39.4766 57.5778C39.4214 57.5742 39.3662 57.5699 39.311 57.5648C39.2559 57.5597 39.2008 57.5539 39.1458 57.5474C39.0908 57.5408 39.036 57.5335 38.9812 57.5254C38.9265 57.5173 38.8718 57.5085 38.8172 57.4989C38.7626 57.4894 38.7083 57.4791 38.654 57.4681C38.5998 57.457 38.5456 57.4453 38.4917 57.4328C38.4378 57.4203 38.384 57.407 38.3304 57.393C38.2769 57.379 38.2235 57.3643 38.1703 57.3489C38.1172 57.3335 38.0642 57.3173 38.0114 57.3004C37.9587 57.2836 37.9062 57.266 37.8539 57.2477C37.8016 57.2293 37.7496 57.2103 37.6979 57.1907C37.6462 57.1709 37.5947 57.1504 37.5435 57.1293C37.4923 57.1082 37.4415 57.0864 37.3908 57.0639C37.3402 57.0414 37.29 57.0182 37.24 56.9943L1.45143 40.8C1.4233 40.7843 1.39549 40.7681 1.36803 40.7513C1.34056 40.7344 1.31345 40.7171 1.2867 40.6991C1.25995 40.6811 1.23359 40.6627 1.20759 40.6437C1.1816 40.6246 1.15601 40.605 1.13083 40.585C1.10564 40.5649 1.08088 40.5443 1.05654 40.5232C1.0322 40.5021 1.00831 40.4805 0.98486 40.4585C0.961407 40.4364 0.938423 40.4138 0.915899 40.3908C0.893376 40.3678 0.871337 40.3442 0.849782 40.3203C0.828227 40.2964 0.807165 40.2721 0.78661 40.2473C0.766058 40.2225 0.746023 40.1973 0.726507 40.1717C0.70699 40.146 0.688008 40.12 0.669562 40.0936C0.651116 40.0672 0.63322 40.0404 0.615876 40.0133C0.59853 39.9861 0.581751 39.9586 0.565538 39.9308C0.549324 39.903 0.533689 39.8748 0.518634 39.8464C0.503578 39.8178 0.489115 39.7891 0.475244 39.76C0.461372 39.731 0.448103 39.7016 0.435439 39.672C0.422775 39.6424 0.410725 39.6125 0.399289 39.5825C0.387853 39.5523 0.377042 39.522 0.366855 39.4914C0.356667 39.4608 0.347112 39.4301 0.33819 39.3992C0.329267 39.3682 0.320985 39.3371 0.313344 39.3058C0.305701 39.2745 0.298706 39.2431 0.292358 39.2115C0.286009 39.18 0.280312 39.1482 0.275269 39.1164C0.270223 39.0846 0.265835 39.0527 0.262104 39.0207C0.258372 38.9887 0.255299 38.9566 0.252887 38.9246C0.250474 38.8924 0.248723 38.8603 0.247633 38.8281C0.246542 38.7959 0.246115 38.7636 0.246351 38.7314C0.246585 38.6992 0.247483 38.6671 0.249042 38.6349C0.250601 38.6027 0.252822 38.5706 0.255703 38.5385C0.258584 38.5064 0.262123 38.4744 0.266322 38.4425C0.27052 38.4105 0.275373 38.3787 0.280881 38.347C0.286389 38.3153 0.292548 38.2836 0.299356 38.2521C0.306165 38.2207 0.313618 38.1893 0.321716 38.1582C0.329812 38.127 0.338548 38.096 0.347921 38.0652C0.357294 38.0343 0.367296 38.0037 0.377929 37.9734C0.388561 37.9429 0.399814 37.9128 0.411688 37.8828C0.423562 37.8528 0.436046 37.8232 0.449141 37.7938C0.462236 37.7643 0.47593 37.7352 0.490225 37.7064C0.504519 37.6775 0.519401 37.6489 0.53487 37.6207C0.550339 37.5924 0.566383 37.5645 0.583001 37.5369C0.599619 37.5093 0.616798 37.4821 0.634537 37.4552C0.652276 37.4283 0.67056 37.4017 0.68939 37.3757C0.708219 37.3495 0.727578 37.3238 0.747466 37.2985C0.767355 37.2731 0.787757 37.2482 0.808673 37.2237C0.829587 37.1992 0.850993 37.1751 0.872891 37.1515C0.894798 37.1279 0.91718 37.1047 0.940032 37.0821C0.962891 37.0593 0.986204 37.0371 1.00997 37.0154C1.03374 36.9937 1.05795 36.9725 1.08259 36.9517C1.10724 36.9309 1.1323 36.9107 1.15777 36.891C1.18325 36.8713 1.20912 36.8521 1.23538 36.8335C1.26165 36.8148 1.28829 36.7967 1.3153 36.7792C1.34231 36.7617 1.36966 36.7446 1.39738 36.7282C1.42509 36.7118 1.45312 36.696 1.48148 36.6807C1.50984 36.6654 1.5385 36.6507 1.56747 36.6367C1.59643 36.6225 1.62567 36.609 1.6552 36.5962C1.68471 36.5833 1.71449 36.571 1.74451 36.5594C1.77453 36.5477 1.80479 36.5367 1.83527 36.5263C1.86574 36.5158 1.89642 36.506 1.92731 36.4969C1.95819 36.4877 1.98924 36.4792 2.02048 36.4714C2.0517 36.4635 2.08309 36.4562 2.11462 36.4496C2.14614 36.4431 2.1778 36.4371 2.20957 36.4318C2.24134 36.4265 2.27321 36.4219 2.30518 36.418C2.33714 36.4139 2.36917 36.4107 2.40127 36.408C2.43338 36.4053 2.46552 36.4033 2.4977 36.4021C2.52988 36.4007 2.56208 36.4 2.59429 36.4C2.70333 36.3855 2.81285 36.3783 2.92286 36.3783C3.03286 36.3783 3.14238 36.3855 3.25143 36.4L3.54286 36.4L39.0857 52.4971C39.4971 52.6686 39.9657 52.6686 40.3829 52.4971L76.52 36.3543C76.5612 36.3297 76.6033 36.3065 76.6461 36.2848C76.6889 36.263 76.7323 36.2427 76.7765 36.2239C76.8207 36.205 76.8655 36.1877 76.9108 36.1718C76.9561 36.156 77.0019 36.1417 77.0481 36.1289C77.0944 36.1161 77.1411 36.1049 77.1881 36.0953C77.2351 36.0856 77.2825 36.0775 77.3301 36.0711C77.3776 36.0646 77.4254 36.0597 77.4733 36.0564C77.5212 36.0532 77.5691 36.0514 77.6171 36.0514L77.6229 36.0514Z"   fill="#ACACAC" ></path></svg>