<svg xmlns="http://www.w3.org/2000/svg" xmlns:xlink="http://www.w3.org/1999/xlink" width="200" height="200" viewBox="0 0 200 200" fill="none"><path d="M100 196.667C153.333 196.667 196.667 153.333 196.667 100C196.667 46.6667 153.333 3.33405 100 3.33405C46.6667 3.33405 3.33405 46.6667 3.33405 100C3.33405 153.333 46.6667 196.667 100 196.667ZM44.0001 65.3335C44.6667 64.0001 46.0001 63.3335 46.6667 63.3335L146.667 63.3335C148 63.3335 148.667 64.0001 149.333 65.3335C150 66.6667 150 67.3335 149.333 68.6667L102.667 148.667C102 149.333 101.333 150 100 150C98.6667 150 98.0001 149.333 97.3335 148.667L44.0001 68.6667C43.3335 67.3335 43.3335 66.0001 44.0001 65.3335Z"   fill="#CDCDCD" ></path></svg>