<?xml version="1.0" standalone="no"?><!DOCTYPE svg PUBLIC "-//W3C//DTD SVG 1.1//EN" "http://www.w3.org/Graphics/SVG/1.1/DTD/svg11.dtd"><svg t="1770275887631" class="icon" viewBox="0 0 1024 1024" version="1.1" xmlns="http://www.w3.org/2000/svg" p-id="72406" xmlns:xlink="http://www.w3.org/1999/xlink" width="200" height="200"><path d="M350 148h-56c-8.8 0-16 6.5-16 14.6v698.9c0 8 7.2 14.6 16 14.6h56c8.8 0 16-6.5 16-14.6V162.6c0-8.1-7.2-14.6-16-14.6zM730 148h-56c-8.8 0-16 6.5-16 14.6v698.9c0 8 7.2 14.6 16 14.6h56c8.8 0 16-6.5 16-14.6V162.6c0-8.1-7.2-14.6-16-14.6z" p-id="72407" fill="#e6e6e6"></path></svg>