<svg xmlns="http://www.w3.org/2000/svg" xmlns:xlink="http://www.w3.org/1999/xlink" width="80" height="80" viewBox="0 0 80 80" fill="none"><path d="M69.5734 43.7164C69.7386 42.4434 69.8455 41.1705 69.8455 39.8102C69.8455 38.4595 69.7191 37.1866 69.5734 35.904L77.9688 29.3354C78.7266 28.7426 78.9305 27.664 78.4445 26.7895L70.4868 13.0206C70.0106 12.1462 68.9321 11.8255 68.0576 12.1462L58.1462 16.1301C56.0766 14.5366 53.8417 13.2248 51.4222 12.2238L49.9064 1.67141C49.7802 0.709375 48.9541 0 47.9533 0L32.0273 0C31.0362 0 30.2005 0.719063 30.0742 1.67133L28.5584 12.2239C26.1291 13.215 23.904 14.5755 21.8343 16.1301L11.9229 12.1461C10.9998 11.7866 9.96984 12.1461 9.49367 13.0207L1.53563 26.7895C1.01094 27.664 1.2636 28.7426 2.0118 29.3354L10.4072 35.904C10.242 37.1769 10.1352 38.4887 10.1352 39.8102C10.1352 41.1316 10.2614 42.4338 10.4072 43.7164L2.00211 50.285C1.24406 50.8777 1.04008 51.9563 1.52594 52.8308L9.48406 66.5997C9.96015 67.4742 11.0387 67.7948 11.9133 67.4742L21.8246 63.4902C23.8943 65.0838 26.1291 66.3956 28.5487 67.3964L30.0645 77.9491C30.1908 78.9016 31.0168 79.6203 32.0176 79.6203L47.9435 79.6203C48.9347 79.6203 49.7704 78.9016 49.8966 77.9491L51.4125 67.3965C53.8417 66.4053 56.0669 65.0449 58.1366 63.4902L68.0479 67.4742C68.9709 67.8338 70.001 67.4742 70.477 66.5997L78.4352 52.8308C78.9117 51.9563 78.707 50.8777 77.9591 50.285L69.5734 43.7164ZM39.9952 53.7539C32.3091 53.7539 26.0611 47.5059 26.0611 39.8199C26.0611 32.1339 32.3091 25.8859 39.9952 25.8859C47.6812 25.8859 53.9292 32.1338 53.9292 39.8199C53.9292 47.506 47.6812 53.7539 39.9952 53.7539Z"   fill="#ACACAC" ></path></svg>